<?xml version="1.0" standalone="no"?>
<!DOCTYPE svg PUBLIC "-//W3C//DTD SVG 20010904//EN"
 "http://www.w3.org/TR/2001/REC-SVG-20010904/DTD/svg10.dtd">
<svg version="1.0" xmlns="http://www.w3.org/2000/svg"
 width="32.000000pt" height="32.000000pt" viewBox="0 0 64.000000 64.000000"
 preserveAspectRatio="xMidYMid meet">

<g transform="translate(0.000000,64.000000) scale(0.100000,-0.100000)"
fill="#000000" stroke="none">
<path d="M248 577 c-131 -37 -217 -177 -188 -309 27 -128 128 -210 260 -211
80 0 143 27 196 85 50 55 67 102 68 178 0 80 -27 142 -86 195 -70 64 -162 86
-250 62z m146 -29 c55 -16 138 -99 154 -154 22 -75 12 -146 -30 -207 l-20 -27
-22 32 c-12 18 -38 44 -58 57 -36 23 -36 24 -18 44 46 48 27 132 -35 161 -18
9 -38 16 -45 16 -7 0 -27 -7 -45 -16 -62 -29 -81 -113 -35 -161 18 -20 18 -21
-18 -44 -20 -13 -46 -39 -58 -57 l-22 -32 -20 27 c-67 97 -54 211 33 298 70
71 145 90 239 63z m-19 -133 c50 -49 15 -135 -55 -135 -41 0 -80 39 -80 80 0
41 39 80 80 80 19 0 40 -9 55 -25z m14 -180 c37 -18 83 -73 79 -93 -6 -29 -78
-57 -148 -57 -69 0 -142 28 -148 57 -4 19 34 66 72 89 37 23 106 25 145 4z"/>
</g>
</svg>
